<svg xmlns="http://www.w3.org/2000/svg" xmlns:xlink="http://www.w3.org/1999/xlink" width="150" zoomAndPan="magnify" viewBox="0 0 112.5 54" height="72" preserveAspectRatio="xMidYMid meet" version="1.2"><defs><clipPath id="cd33fbb92c"><path d="M 2.726562 7.792969 L 13 7.792969 L 13 18 L 2.726562 18 Z M 2.726562 7.792969 "/></clipPath><clipPath id="a70561a5cb"><path d="M 41.800781 35.019531 L 52 35.019531 L 52 45.332031 L 41.800781 45.332031 Z M 41.800781 35.019531 "/></clipPath><clipPath id="ab93c85ebd"><path d="M 22 14.445312 L 34 14.445312 L 34 21 L 22 21 Z M 22 14.445312 "/></clipPath><clipPath id="136763b09f"><path d="M 13 17 L 41.648438 17 L 41.648438 35.0625 L 13 35.0625 Z M 13 17 "/></clipPath><clipPath id="00dc596f0f"><path d="M 16 17 L 41.648438 17 L 41.648438 24 L 16 24 Z M 16 17 "/></clipPath><clipPath id="40aaaa501f"><path d="M 13 17 L 19 17 L 19 35.0625 L 13 35.0625 Z M 13 17 "/></clipPath></defs><g id="e614122dfe"><g clip-rule="nonzero" clip-path="url(#cd33fbb92c)"><path style=" stroke:none;fill-rule:nonzero;fill:#ff3131;fill-opacity:1;" d="M 7.824219 7.792969 C 7.328125 11.992188 6.925781 12.394531 2.726562 12.890625 C 2.734375 12.894531 2.746094 12.894531 2.753906 12.894531 C 6.925781 13.390625 7.328125 13.800781 7.824219 17.988281 C 8.320312 13.792969 8.722656 13.386719 12.921875 12.890625 C 8.722656 12.394531 8.320312 11.992188 7.824219 7.792969 Z M 7.824219 7.792969 "/></g><g clip-rule="nonzero" clip-path="url(#a70561a5cb)"><path style=" stroke:none;fill-rule:nonzero;fill:#ff3131;fill-opacity:1;" d="M 46.894531 35.019531 C 46.398438 39.21875 45.996094 39.621094 41.800781 40.117188 C 41.808594 40.117188 41.816406 40.121094 41.824219 40.121094 C 46 40.617188 46.402344 41.027344 46.894531 45.214844 C 47.394531 41.015625 47.796875 40.613281 51.992188 40.117188 C 47.796875 39.621094 47.394531 39.21875 46.894531 35.019531 Z M 46.894531 35.019531 "/></g><g clip-rule="nonzero" clip-path="url(#ab93c85ebd)"><path style=" stroke:none;fill-rule:nonzero;fill:#ef3c34;fill-opacity:1;" d="M 33.703125 17.429688 C 33.703125 19.070312 32.578125 20.402344 31.191406 20.402344 L 25.402344 20.402344 C 24.015625 20.402344 22.890625 19.070312 22.890625 17.429688 C 22.890625 15.789062 22.742188 14.460938 24.128906 14.460938 L 32.5 14.460938 C 33.890625 14.460938 33.703125 15.789062 33.703125 17.429688 "/></g><path style=" stroke:none;fill-rule:nonzero;fill:#bf1a2c;fill-opacity:1;" d="M 17.839844 17.722656 C 17.839844 18.457031 17.367188 19.054688 16.78125 19.054688 L 16.097656 19.054688 C 15.515625 19.054688 15.039062 18.457031 15.039062 17.722656 C 15.039062 16.984375 15.515625 16.386719 16.097656 16.386719 L 16.78125 16.386719 C 17.367188 16.386719 17.839844 16.984375 17.839844 17.722656 "/><g clip-rule="nonzero" clip-path="url(#136763b09f)"><path style=" stroke:none;fill-rule:nonzero;fill:#f25833;fill-opacity:1;" d="M 41.648438 30.644531 C 41.648438 33.070312 41.363281 35.035156 38.957031 35.035156 L 15.800781 35.035156 C 13.390625 35.035156 13.066406 33.070312 13.066406 30.644531 L 13.066406 21.867188 C 13.066406 19.441406 13.390625 17.472656 15.800781 17.472656 L 38.957031 17.472656 C 41.363281 17.472656 41.648438 19.441406 41.648438 21.867188 L 41.648438 30.644531 "/></g><g clip-rule="nonzero" clip-path="url(#00dc596f0f)"><path style=" stroke:none;fill-rule:nonzero;fill:#ece2cf;fill-opacity:1;" d="M 38.957031 17.472656 L 16.484375 17.472656 L 16.484375 23.371094 L 41.648438 23.371094 L 41.648438 21.867188 C 41.648438 19.441406 41.363281 17.472656 38.957031 17.472656 "/></g><path style=" stroke:none;fill-rule:nonzero;fill:#383536;fill-opacity:1;" d="M 37.097656 26.425781 C 37.097656 30.847656 33.539062 34.433594 29.152344 34.433594 C 24.761719 34.433594 21.203125 30.847656 21.203125 26.425781 C 21.203125 22.003906 24.761719 18.421875 29.152344 18.421875 C 33.539062 18.421875 37.097656 22.003906 37.097656 26.425781 "/><path style=" stroke:none;fill-rule:nonzero;fill:#302c2d;fill-opacity:1;" d="M 35.367188 26.425781 C 35.367188 29.886719 32.585938 32.691406 29.152344 32.691406 C 25.71875 32.691406 22.933594 29.886719 22.933594 26.425781 C 22.933594 22.96875 25.71875 20.164062 29.152344 20.164062 C 32.585938 20.164062 35.367188 22.96875 35.367188 26.425781 "/><path style=" stroke:none;fill-rule:nonzero;fill:#ffffff;fill-opacity:1;" d="M 34.214844 24.621094 C 34.214844 26.046875 33.066406 27.203125 31.648438 27.203125 C 30.234375 27.203125 29.085938 26.046875 29.085938 24.621094 C 29.085938 23.191406 30.234375 22.035156 31.648438 22.035156 C 33.066406 22.035156 34.214844 23.191406 34.214844 24.621094 "/><path style=" stroke:none;fill-rule:nonzero;fill:#ffffff;fill-opacity:1;" d="M 33.636719 29.011719 C 33.636719 29.6875 33.089844 30.238281 32.417969 30.238281 C 31.746094 30.238281 31.203125 29.6875 31.203125 29.011719 C 31.203125 28.332031 31.746094 27.78125 32.417969 27.78125 C 33.089844 27.78125 33.636719 28.332031 33.636719 29.011719 "/><g clip-rule="nonzero" clip-path="url(#40aaaa501f)"><path style=" stroke:none;fill-rule:nonzero;fill:#ef3c34;fill-opacity:1;" d="M 18.554688 17.472656 L 15.691406 17.472656 C 12.929688 17.472656 13.066406 19.441406 13.066406 21.867188 L 13.066406 30.644531 C 13.066406 33.070312 13.035156 35.035156 15.800781 35.035156 L 18.554688 35.035156 L 18.554688 17.472656 "/></g><path style=" stroke:none;fill-rule:nonzero;fill:#bf1a2c;fill-opacity:1;" d="M 39.808594 21.605469 L 37.164062 21.605469 L 37.164062 18.9375 L 39.808594 18.9375 L 39.808594 21.605469 "/><path style=" stroke:none;fill-rule:nonzero;fill:#302c2d;fill-opacity:1;" d="M 31.734375 16.785156 L 25.070312 16.785156 L 25.070312 15.191406 L 31.734375 15.191406 L 31.734375 16.785156 "/><g style="fill:#000000;fill-opacity:1;"><g transform="translate(50.211866, 24.695457)"><path style="stroke:none" d="M 1.65625 0 L 0.6875 0 L 0.6875 -5.3125 L 2.0625 -5.3125 L 3.40625 -1.40625 L 3.484375 -1.40625 L 4.8125 -5.3125 L 6.15625 -5.3125 L 6.15625 0 L 5.171875 0 L 5.171875 -3.515625 L 5.078125 -3.515625 L 3.84375 0 L 2.96875 0 L 1.75 -3.515625 L 1.65625 -3.515625 Z M 1.65625 0 "/></g><g transform="translate(57.069312, 24.695457)"><path style="stroke:none" d="M 2.53125 0 L 1.359375 0 L 0.140625 -5.3125 L 1.1875 -5.3125 L 2 -1.578125 L 2.078125 -1.578125 L 3.03125 -5.3125 L 3.9375 -5.3125 L 4.90625 -1.578125 L 5 -1.578125 L 5.796875 -5.3125 L 6.8125 -5.3125 L 5.59375 0 L 4.421875 0 L 3.484375 -3.421875 L 3.40625 -3.421875 Z M 2.53125 0 "/></g><g transform="translate(64.024877, 24.695457)"><path style="stroke:none" d="M 1.734375 0 L 0.6875 0 L 0.6875 -5.3125 L 1.734375 -5.3125 Z M 1.734375 0 "/></g><g transform="translate(66.459688, 24.695457)"><path style="stroke:none" d="M 1.703125 0 L 0.6875 0 L 0.6875 -5.3125 L 1.890625 -5.3125 L 4.03125 -1.890625 L 4.125 -1.90625 L 4.125 -5.3125 L 5.125 -5.3125 L 5.125 0 L 4.046875 0 L 1.796875 -3.65625 L 1.703125 -3.640625 Z M 1.703125 0 "/></g><g transform="translate(72.285065, 24.695457)"><path style="stroke:none" d="M 2.90625 0 L 1.859375 0 L 1.859375 -2.078125 L 0.03125 -5.3125 L 1.15625 -5.3125 L 2.359375 -3.21875 L 2.453125 -3.21875 L 3.640625 -5.3125 L 4.75 -5.3125 L 2.90625 -2.078125 Z M 2.90625 0 "/></g><g transform="translate(77.056568, 24.695457)"><path style="stroke:none" d="M 1.734375 0 L 0.6875 0 L 0.6875 -5.3125 L 1.734375 -5.3125 Z M 1.734375 0 "/></g><g transform="translate(79.491379, 24.695457)"><path style="stroke:none" d=""/></g><g transform="translate(81.246624, 24.695457)"><path style="stroke:none" d="M 2.90625 0.078125 C 2.414062 0.078125 1.984375 -0.0195312 1.609375 -0.21875 C 1.234375 -0.425781 0.941406 -0.734375 0.734375 -1.140625 C 0.523438 -1.546875 0.421875 -2.050781 0.421875 -2.65625 C 0.421875 -3.25 0.523438 -3.75 0.734375 -4.15625 C 0.941406 -4.570312 1.234375 -4.878906 1.609375 -5.078125 C 1.984375 -5.285156 2.414062 -5.390625 2.90625 -5.390625 C 3.414062 -5.390625 3.847656 -5.285156 4.203125 -5.078125 C 4.554688 -4.878906 4.8125 -4.578125 4.96875 -4.171875 L 4.203125 -3.703125 L 4.109375 -3.703125 C 3.992188 -3.984375 3.835938 -4.179688 3.640625 -4.296875 C 3.453125 -4.421875 3.207031 -4.484375 2.90625 -4.484375 C 2.457031 -4.484375 2.109375 -4.335938 1.859375 -4.046875 C 1.617188 -3.753906 1.5 -3.289062 1.5 -2.65625 C 1.5 -2.019531 1.617188 -1.554688 1.859375 -1.265625 C 2.109375 -0.972656 2.457031 -0.828125 2.90625 -0.828125 C 3.59375 -0.828125 4.015625 -1.164062 4.171875 -1.84375 L 4.265625 -1.84375 L 5.03125 -1.4375 C 4.882812 -0.925781 4.632812 -0.546875 4.28125 -0.296875 C 3.9375 -0.046875 3.476562 0.078125 2.90625 0.078125 Z M 2.90625 0.078125 "/></g><g transform="translate(86.457846, 24.695457)"><path style="stroke:none" d="M 1.734375 -5.3125 L 1.734375 -0.875 L 4.125 -0.875 L 4.125 0 L 0.6875 0 L 0.6875 -5.3125 Z M 1.734375 -5.3125 "/></g><g transform="translate(90.760557, 24.695457)"><path style="stroke:none" d="M 1.734375 0 L 0.6875 0 L 0.6875 -5.3125 L 1.734375 -5.3125 Z M 1.734375 0 "/></g><g transform="translate(93.195369, 24.695457)"><path style="stroke:none" d="M 2.90625 0.078125 C 2.414062 0.078125 1.984375 -0.0195312 1.609375 -0.21875 C 1.234375 -0.425781 0.941406 -0.734375 0.734375 -1.140625 C 0.523438 -1.546875 0.421875 -2.050781 0.421875 -2.65625 C 0.421875 -3.25 0.523438 -3.75 0.734375 -4.15625 C 0.941406 -4.570312 1.234375 -4.878906 1.609375 -5.078125 C 1.984375 -5.285156 2.414062 -5.390625 2.90625 -5.390625 C 3.414062 -5.390625 3.847656 -5.285156 4.203125 -5.078125 C 4.554688 -4.878906 4.8125 -4.578125 4.96875 -4.171875 L 4.203125 -3.703125 L 4.109375 -3.703125 C 3.992188 -3.984375 3.835938 -4.179688 3.640625 -4.296875 C 3.453125 -4.421875 3.207031 -4.484375 2.90625 -4.484375 C 2.457031 -4.484375 2.109375 -4.335938 1.859375 -4.046875 C 1.617188 -3.753906 1.5 -3.289062 1.5 -2.65625 C 1.5 -2.019531 1.617188 -1.554688 1.859375 -1.265625 C 2.109375 -0.972656 2.457031 -0.828125 2.90625 -0.828125 C 3.59375 -0.828125 4.015625 -1.164062 4.171875 -1.84375 L 4.265625 -1.84375 L 5.03125 -1.4375 C 4.882812 -0.925781 4.632812 -0.546875 4.28125 -0.296875 C 3.9375 -0.046875 3.476562 0.078125 2.90625 0.078125 Z M 2.90625 0.078125 "/></g><g transform="translate(98.406591, 24.695457)"><path style="stroke:none" d="M 0.6875 0 L 0.6875 -5.3125 L 1.734375 -5.3125 L 1.734375 -3.140625 L 1.859375 -3.140625 L 3.625 -5.3125 L 4.703125 -5.3125 L 4.703125 -5.21875 L 2.75 -2.796875 L 4.90625 -0.09375 L 4.90625 0 L 3.71875 0 L 1.859375 -2.296875 L 1.734375 -2.296875 L 1.734375 0 Z M 0.6875 0 "/></g><g transform="translate(103.316188, 24.695457)"><path style="stroke:none" d="M 2.359375 0.078125 C 1.984375 0.078125 1.648438 0.03125 1.359375 -0.0625 C 1.078125 -0.15625 0.835938 -0.273438 0.640625 -0.421875 C 0.453125 -0.566406 0.3125 -0.726562 0.21875 -0.90625 L 0.796875 -1.609375 L 0.875 -1.609375 C 1.039062 -1.367188 1.242188 -1.175781 1.484375 -1.03125 C 1.734375 -0.894531 2.023438 -0.828125 2.359375 -0.828125 C 2.640625 -0.828125 2.847656 -0.882812 2.984375 -1 C 3.128906 -1.125 3.203125 -1.289062 3.203125 -1.5 C 3.203125 -1.625 3.175781 -1.726562 3.125 -1.8125 C 3.082031 -1.894531 3.007812 -1.96875 2.90625 -2.03125 C 2.800781 -2.09375 2.65625 -2.144531 2.46875 -2.1875 L 1.796875 -2.34375 C 1.316406 -2.457031 0.957031 -2.640625 0.71875 -2.890625 C 0.488281 -3.140625 0.375 -3.46875 0.375 -3.875 C 0.375 -4.175781 0.445312 -4.441406 0.59375 -4.671875 C 0.75 -4.898438 0.96875 -5.078125 1.25 -5.203125 C 1.539062 -5.328125 1.882812 -5.390625 2.28125 -5.390625 C 2.6875 -5.390625 3.035156 -5.332031 3.328125 -5.21875 C 3.617188 -5.113281 3.867188 -4.953125 4.078125 -4.734375 L 3.5625 -4.015625 L 3.46875 -4.015625 C 3.3125 -4.171875 3.132812 -4.285156 2.9375 -4.359375 C 2.75 -4.441406 2.53125 -4.484375 2.28125 -4.484375 C 2 -4.484375 1.78125 -4.429688 1.625 -4.328125 C 1.476562 -4.234375 1.40625 -4.097656 1.40625 -3.921875 C 1.40625 -3.753906 1.457031 -3.617188 1.5625 -3.515625 C 1.664062 -3.410156 1.847656 -3.332031 2.109375 -3.28125 L 2.796875 -3.140625 C 3.316406 -3.023438 3.691406 -2.835938 3.921875 -2.578125 C 4.160156 -2.316406 4.28125 -1.976562 4.28125 -1.5625 C 4.28125 -1.226562 4.207031 -0.9375 4.0625 -0.6875 C 3.914062 -0.445312 3.695312 -0.257812 3.40625 -0.125 C 3.125 0.0078125 2.773438 0.078125 2.359375 0.078125 Z M 2.359375 0.078125 "/></g></g><g style="fill:#000000;fill-opacity:1;"><g transform="translate(71.125389, 31.889957)"><path style="stroke:none" d="M 1.890625 0.0625 C 1.617188 0.0625 1.375 0.0234375 1.15625 -0.046875 C 0.9375 -0.117188 0.753906 -0.210938 0.609375 -0.328125 C 0.472656 -0.453125 0.367188 -0.585938 0.296875 -0.734375 L 0.578125 -1.078125 L 0.640625 -1.078125 C 0.910156 -0.617188 1.328125 -0.390625 1.890625 -0.390625 C 2.210938 -0.390625 2.453125 -0.457031 2.609375 -0.59375 C 2.773438 -0.738281 2.859375 -0.929688 2.859375 -1.171875 C 2.859375 -1.304688 2.832031 -1.421875 2.78125 -1.515625 C 2.726562 -1.617188 2.640625 -1.707031 2.515625 -1.78125 C 2.398438 -1.851562 2.238281 -1.914062 2.03125 -1.96875 L 1.515625 -2.09375 C 1.140625 -2.175781 0.863281 -2.316406 0.6875 -2.515625 C 0.507812 -2.722656 0.421875 -2.976562 0.421875 -3.28125 C 0.421875 -3.488281 0.472656 -3.675781 0.578125 -3.84375 C 0.691406 -4.019531 0.851562 -4.15625 1.0625 -4.25 C 1.28125 -4.34375 1.535156 -4.390625 1.828125 -4.390625 C 2.160156 -4.390625 2.4375 -4.34375 2.65625 -4.25 C 2.882812 -4.15625 3.066406 -4.019531 3.203125 -3.84375 L 2.953125 -3.5 L 2.875 -3.5 C 2.75 -3.65625 2.597656 -3.769531 2.421875 -3.84375 C 2.253906 -3.914062 2.054688 -3.953125 1.828125 -3.953125 C 1.535156 -3.953125 1.3125 -3.890625 1.15625 -3.765625 C 1 -3.648438 0.921875 -3.488281 0.921875 -3.28125 C 0.921875 -3.09375 0.976562 -2.941406 1.09375 -2.828125 C 1.207031 -2.710938 1.394531 -2.617188 1.65625 -2.546875 L 2.1875 -2.4375 C 2.601562 -2.332031 2.90625 -2.175781 3.09375 -1.96875 C 3.28125 -1.769531 3.375 -1.507812 3.375 -1.1875 C 3.375 -0.945312 3.316406 -0.734375 3.203125 -0.546875 C 3.097656 -0.359375 2.929688 -0.207031 2.703125 -0.09375 C 2.484375 0.0078125 2.210938 0.0625 1.890625 0.0625 Z M 1.890625 0.0625 "/></g><g transform="translate(74.835658, 31.889957)"><path style="stroke:none" d="M 3.890625 0 L 3.34375 0 L 2.953125 -1.1875 L 1.109375 -1.1875 L 0.703125 0 L 0.171875 0 L 1.6875 -4.328125 L 2.390625 -4.328125 Z M 2 -3.796875 L 1.25 -1.609375 L 2.8125 -1.609375 L 2.0625 -3.796875 Z M 2 -3.796875 "/></g></g><g style="fill:#000000;fill-opacity:1;"><g transform="translate(78.569615, 31.889957)"><path style="stroke:none" d="M 2.109375 0 L 1.609375 0 L 1.609375 -1.703125 L 0.109375 -4.328125 L 0.671875 -4.328125 L 1.828125 -2.296875 L 1.90625 -2.296875 L 3.0625 -4.328125 L 3.609375 -4.328125 L 2.109375 -1.703125 Z M 2.109375 0 "/></g><g transform="translate(82.291728, 31.889957)"><path style="stroke:none" d=""/></g><g transform="translate(83.778205, 31.889957)"><path style="stroke:none" d="M 2.390625 0.0625 C 2.015625 0.0625 1.675781 -0.0195312 1.375 -0.1875 C 1.082031 -0.363281 0.851562 -0.617188 0.6875 -0.953125 C 0.519531 -1.296875 0.4375 -1.695312 0.4375 -2.15625 C 0.4375 -2.625 0.519531 -3.023438 0.6875 -3.359375 C 0.851562 -3.703125 1.082031 -3.957031 1.375 -4.125 C 1.675781 -4.300781 2.015625 -4.390625 2.390625 -4.390625 C 2.796875 -4.390625 3.128906 -4.3125 3.390625 -4.15625 C 3.660156 -4.007812 3.859375 -3.78125 3.984375 -3.46875 L 3.65625 -3.25 L 3.578125 -3.25 C 3.460938 -3.5 3.304688 -3.675781 3.109375 -3.78125 C 2.921875 -3.882812 2.679688 -3.9375 2.390625 -3.9375 C 2.117188 -3.9375 1.875 -3.875 1.65625 -3.75 C 1.445312 -3.625 1.28125 -3.429688 1.15625 -3.171875 C 1.039062 -2.910156 0.984375 -2.570312 0.984375 -2.15625 C 0.984375 -1.75 1.039062 -1.414062 1.15625 -1.15625 C 1.28125 -0.894531 1.445312 -0.703125 1.65625 -0.578125 C 1.875 -0.453125 2.117188 -0.390625 2.390625 -0.390625 C 2.703125 -0.390625 2.957031 -0.457031 3.15625 -0.59375 C 3.351562 -0.738281 3.503906 -0.972656 3.609375 -1.296875 L 3.671875 -1.296875 L 4.015625 -1.125 C 3.910156 -0.738281 3.71875 -0.441406 3.4375 -0.234375 C 3.164062 -0.0351562 2.816406 0.0625 2.390625 0.0625 Z M 2.390625 0.0625 "/></g><g transform="translate(88.024434, 31.889957)"><path style="stroke:none" d="M 3.40625 -2.578125 L 3.40625 -4.328125 L 3.921875 -4.328125 L 3.921875 0 L 3.40625 0 L 3.40625 -2.140625 L 1.15625 -2.140625 L 1.15625 0 L 0.65625 0 L 0.65625 -4.328125 L 1.15625 -4.328125 L 1.15625 -2.578125 Z M 3.40625 -2.578125 "/></g><g transform="translate(92.602307, 31.889957)"><path style="stroke:none" d="M 1.15625 -2.046875 L 1.15625 -0.421875 L 3.375 -0.421875 L 3.375 0 L 0.65625 0 L 0.65625 -4.328125 L 3.328125 -4.328125 L 3.328125 -3.90625 L 1.15625 -3.90625 L 1.15625 -2.453125 L 3.0625 -2.453125 L 3.0625 -2.046875 Z M 1.15625 -2.046875 "/></g><g transform="translate(96.259275, 31.889957)"><path style="stroke:none" d="M 1.15625 -2.046875 L 1.15625 -0.421875 L 3.375 -0.421875 L 3.375 0 L 0.65625 0 L 0.65625 -4.328125 L 3.328125 -4.328125 L 3.328125 -3.90625 L 1.15625 -3.90625 L 1.15625 -2.453125 L 3.0625 -2.453125 L 3.0625 -2.046875 Z M 1.15625 -2.046875 "/></g><g transform="translate(99.916244, 31.889957)"><path style="stroke:none" d="M 1.890625 0.0625 C 1.617188 0.0625 1.375 0.0234375 1.15625 -0.046875 C 0.9375 -0.117188 0.753906 -0.210938 0.609375 -0.328125 C 0.472656 -0.453125 0.367188 -0.585938 0.296875 -0.734375 L 0.578125 -1.078125 L 0.640625 -1.078125 C 0.910156 -0.617188 1.328125 -0.390625 1.890625 -0.390625 C 2.210938 -0.390625 2.453125 -0.457031 2.609375 -0.59375 C 2.773438 -0.738281 2.859375 -0.929688 2.859375 -1.171875 C 2.859375 -1.304688 2.832031 -1.421875 2.78125 -1.515625 C 2.726562 -1.617188 2.640625 -1.707031 2.515625 -1.78125 C 2.398438 -1.851562 2.238281 -1.914062 2.03125 -1.96875 L 1.515625 -2.09375 C 1.140625 -2.175781 0.863281 -2.316406 0.6875 -2.515625 C 0.507812 -2.722656 0.421875 -2.976562 0.421875 -3.28125 C 0.421875 -3.488281 0.472656 -3.675781 0.578125 -3.84375 C 0.691406 -4.019531 0.851562 -4.15625 1.0625 -4.25 C 1.28125 -4.34375 1.535156 -4.390625 1.828125 -4.390625 C 2.160156 -4.390625 2.4375 -4.34375 2.65625 -4.25 C 2.882812 -4.15625 3.066406 -4.019531 3.203125 -3.84375 L 2.953125 -3.5 L 2.875 -3.5 C 2.75 -3.65625 2.597656 -3.769531 2.421875 -3.84375 C 2.253906 -3.914062 2.054688 -3.953125 1.828125 -3.953125 C 1.535156 -3.953125 1.3125 -3.890625 1.15625 -3.765625 C 1 -3.648438 0.921875 -3.488281 0.921875 -3.28125 C 0.921875 -3.09375 0.976562 -2.941406 1.09375 -2.828125 C 1.207031 -2.710938 1.394531 -2.617188 1.65625 -2.546875 L 2.1875 -2.4375 C 2.601562 -2.332031 2.90625 -2.175781 3.09375 -1.96875 C 3.28125 -1.769531 3.375 -1.507812 3.375 -1.1875 C 3.375 -0.945312 3.316406 -0.734375 3.203125 -0.546875 C 3.097656 -0.359375 2.929688 -0.207031 2.703125 -0.09375 C 2.484375 0.0078125 2.210938 0.0625 1.890625 0.0625 Z M 1.890625 0.0625 "/></g><g transform="translate(103.626512, 31.889957)"><path style="stroke:none" d="M 1.15625 -2.046875 L 1.15625 -0.421875 L 3.375 -0.421875 L 3.375 0 L 0.65625 0 L 0.65625 -4.328125 L 3.328125 -4.328125 L 3.328125 -3.90625 L 1.15625 -3.90625 L 1.15625 -2.453125 L 3.0625 -2.453125 L 3.0625 -2.046875 Z M 1.15625 -2.046875 "/></g></g></g></svg>